#tb 0: 1/1000
#media_type 0: video
#codec_id 0: rawvideo
#dimensions 0: 100x70
#sar 0: 0/1
0,          0,          0,       80,    28000, 0x2023ba6e
0,         80,         80,       80,    28000, 0x4292b778
0,        160,        160,       80,    28000, 0x1c972ef1
0,        240,        240,       80,    28000, 0xa98d8d04
0,        320,        320,       80,    28000, 0xd323b6af
0,        400,        400,       80,    28000, 0x508aba99
0,        480,        480,       80,    28000, 0x5c672dda
0,        560,        560,       80,    28000, 0xc8961ebb
0,        640,        640,     1000,    28000, 0x82460e1b
0,       1640,       1640,       80,    28000, 0x3debbfc9
0,       1720,       1720,       80,    28000, 0x427ab31f
0,       1800,       1800,       80,    28000, 0x6bbdec2e
0,       1880,       1880,       80,    28000, 0x5690b56b
0,       1960,       1960,       80,    28000, 0xb62963f3
0,       2040,       2040,       80,    28000, 0x68dd37b2
0,       2120,       2120,       80,    28000, 0x465c47d2
0,       2200,       2200,    10000,    28000, 0xa92033df
